<?xml version="1.0" encoding="UTF-8" standalone="no"?><svg xmlns="http://www.w3.org/2000/svg" xmlns:xlink="http://www.w3.org/1999/xlink" contentScriptType="application/ecmascript" contentStyleType="text/css" height="645px" preserveAspectRatio="none" style="width:517px;height:645px;background:#FFFFFF;" version="1.1" viewBox="0 0 517 645" width="517px" zoomAndPan="magnify"><defs><filter height="300%" id="f1rg7att3wqbnz" width="300%" x="-1" y="-1"><feGaussianBlur result="blurOut" stdDeviation="2.0"/><feColorMatrix in="blurOut" result="blurOut2" type="matrix" values="0 0 0 0 0 0 0 0 0 0 0 0 0 0 0 0 0 0 .4 0"/><feOffset dx="4.0" dy="4.0" in="blurOut2" result="blurOut3"/><feBlend in="SourceGraphic" in2="blurOut3" mode="normal"/></filter></defs><g><rect fill="#90EE90" filter="url(#f1rg7att3wqbnz)" height="29.3105" style="stroke:#A80036;stroke-width:1.0;" width="10" x="35.5" y="220.7305"/><rect fill="#90EE90" filter="url(#f1rg7att3wqbnz)" height="29.3105" style="stroke:#A80036;stroke-width:1.0;" width="10" x="114" y="337.9727"/><rect fill="#90EE90" filter="url(#f1rg7att3wqbnz)" height="29.3105" style="stroke:#A80036;stroke-width:1.0;" width="10" x="186" y="455.2148"/><rect fill="#ADD8E6" filter="url(#f1rg7att3wqbnz)" height="424.3477" style="stroke:#A80036;stroke-width:1.0;" width="10" x="325" y="127.7988"/><rect fill="#808080" filter="url(#f1rg7att3wqbnz)" height="29.3105" style="stroke:#A80036;stroke-width:1.0;" width="10" x="459" y="162.1094"/><rect fill="#808080" filter="url(#f1rg7att3wqbnz)" height="29.3105" style="stroke:#A80036;stroke-width:1.0;" width="10" x="459" y="279.3516"/><rect fill="#808080" filter="url(#f1rg7att3wqbnz)" height="29.3105" style="stroke:#A80036;stroke-width:1.0;" width="10" x="459" y="396.5938"/><rect fill="#808080" filter="url(#f1rg7att3wqbnz)" height="29.3105" style="stroke:#A80036;stroke-width:1.0;" width="10" x="459" y="513.8359"/><line style="stroke:#A80036;stroke-width:1.0;stroke-dasharray:5.0,5.0;" x1="40" x2="40" y1="88.4883" y2="561.1465"/><line style="stroke:#A80036;stroke-width:1.0;stroke-dasharray:5.0,5.0;" x1="119" x2="119" y1="88.4883" y2="561.1465"/><line style="stroke:#A80036;stroke-width:1.0;stroke-dasharray:5.0,5.0;" x1="191" x2="191" y1="88.4883" y2="561.1465"/><line style="stroke:#A80036;stroke-width:1.0;stroke-dasharray:5.0,5.0;" x1="329.5" x2="329.5" y1="88.4883" y2="561.1465"/><line style="stroke:#A80036;stroke-width:1.0;stroke-dasharray:5.0,5.0;" x1="463.5" x2="463.5" y1="88.4883" y2="561.1465"/><text fill="#000000" font-family="sans-serif" font-size="14" lengthAdjust="spacing" textLength="65" x="5" y="85.5352">Salesman</text><ellipse cx="40.5" cy="15" fill="#FEFECE" filter="url(#f1rg7att3wqbnz)" rx="8" ry="8" style="stroke:#A80036;stroke-width:2.0;"/><path d="M40.5,23 L40.5,50 M27.5,31 L53.5,31 M40.5,50 L27.5,65 M40.5,50 L53.5,65 " fill="none" filter="url(#f1rg7att3wqbnz)" style="stroke:#A80036;stroke-width:2.0;"/><text fill="#000000" font-family="sans-serif" font-size="14" lengthAdjust="spacing" textLength="65" x="5" y="573.6816">Salesman</text><ellipse cx="40.5" cy="586.6348" fill="#FEFECE" filter="url(#f1rg7att3wqbnz)" rx="8" ry="8" style="stroke:#A80036;stroke-width:2.0;"/><path d="M40.5,594.6348 L40.5,621.6348 M27.5,602.6348 L53.5,602.6348 M40.5,621.6348 L27.5,636.6348 M40.5,621.6348 L53.5,636.6348 " fill="none" filter="url(#f1rg7att3wqbnz)" style="stroke:#A80036;stroke-width:2.0;"/><text fill="#000000" font-family="sans-serif" font-size="14" lengthAdjust="spacing" textLength="60" x="86" y="85.5352">Manager</text><ellipse cx="119" cy="15" fill="#FEFECE" filter="url(#f1rg7att3wqbnz)" rx="8" ry="8" style="stroke:#A80036;stroke-width:2.0;"/><path d="M119,23 L119,50 M106,31 L132,31 M119,50 L106,65 M119,50 L132,65 " fill="none" filter="url(#f1rg7att3wqbnz)" style="stroke:#A80036;stroke-width:2.0;"/><text fill="#000000" font-family="sans-serif" font-size="14" lengthAdjust="spacing" textLength="60" x="86" y="573.6816">Manager</text><ellipse cx="119" cy="586.6348" fill="#FEFECE" filter="url(#f1rg7att3wqbnz)" rx="8" ry="8" style="stroke:#A80036;stroke-width:2.0;"/><path d="M119,594.6348 L119,621.6348 M106,602.6348 L132,602.6348 M119,621.6348 L106,636.6348 M119,621.6348 L132,636.6348 " fill="none" filter="url(#f1rg7att3wqbnz)" style="stroke:#A80036;stroke-width:2.0;"/><text fill="#000000" font-family="sans-serif" font-size="14" lengthAdjust="spacing" textLength="52" x="162" y="85.5352">Tracker</text><ellipse cx="191" cy="15" fill="#FEFECE" filter="url(#f1rg7att3wqbnz)" rx="8" ry="8" style="stroke:#A80036;stroke-width:2.0;"/><path d="M191,23 L191,50 M178,31 L204,31 M191,50 L178,65 M191,50 L204,65 " fill="none" filter="url(#f1rg7att3wqbnz)" style="stroke:#A80036;stroke-width:2.0;"/><text fill="#000000" font-family="sans-serif" font-size="14" lengthAdjust="spacing" textLength="52" x="162" y="573.6816">Tracker</text><ellipse cx="191" cy="586.6348" fill="#FEFECE" filter="url(#f1rg7att3wqbnz)" rx="8" ry="8" style="stroke:#A80036;stroke-width:2.0;"/><path d="M191,594.6348 L191,621.6348 M178,602.6348 L204,602.6348 M191,621.6348 L178,636.6348 M191,621.6348 L204,636.6348 " fill="none" filter="url(#f1rg7att3wqbnz)" style="stroke:#A80036;stroke-width:2.0;"/><text fill="#000000" font-family="sans-serif" font-size="14" lengthAdjust="spacing" textLength="57" x="298.5" y="85.5352">BidLogic</text><ellipse cx="330" cy="15" fill="#FEFECE" filter="url(#f1rg7att3wqbnz)" rx="8" ry="8" style="stroke:#A80036;stroke-width:2.0;"/><path d="M330,23 L330,50 M317,31 L343,31 M330,50 L317,65 M330,50 L343,65 " fill="none" filter="url(#f1rg7att3wqbnz)" style="stroke:#A80036;stroke-width:2.0;"/><text fill="#000000" font-family="sans-serif" font-size="14" lengthAdjust="spacing" textLength="57" x="298.5" y="573.6816">BidLogic</text><ellipse cx="330" cy="586.6348" fill="#FEFECE" filter="url(#f1rg7att3wqbnz)" rx="8" ry="8" style="stroke:#A80036;stroke-width:2.0;"/><path d="M330,594.6348 L330,621.6348 M317,602.6348 L343,602.6348 M330,621.6348 L317,636.6348 M330,621.6348 L343,636.6348 " fill="none" filter="url(#f1rg7att3wqbnz)" style="stroke:#A80036;stroke-width:2.0;"/><rect fill="#FEFECE" filter="url(#f1rg7att3wqbnz)" height="30.4883" style="stroke:#A80036;stroke-width:1.5;" width="83" x="420.5" y="53"/><text fill="#000000" font-family="sans-serif" font-size="14" lengthAdjust="spacing" textLength="69" x="427.5" y="73.5352">BidService</text><rect fill="#FEFECE" filter="url(#f1rg7att3wqbnz)" height="30.4883" style="stroke:#A80036;stroke-width:1.5;" width="83" x="420.5" y="560.1465"/><text fill="#000000" font-family="sans-serif" font-size="14" lengthAdjust="spacing" textLength="69" x="427.5" y="580.6816">BidService</text><rect fill="#90EE90" filter="url(#f1rg7att3wqbnz)" height="29.3105" style="stroke:#A80036;stroke-width:1.0;" width="10" x="35.5" y="220.7305"/><rect fill="#90EE90" filter="url(#f1rg7att3wqbnz)" height="29.3105" style="stroke:#A80036;stroke-width:1.0;" width="10" x="114" y="337.9727"/><rect fill="#90EE90" filter="url(#f1rg7att3wqbnz)" height="29.3105" style="stroke:#A80036;stroke-width:1.0;" width="10" x="186" y="455.2148"/><rect fill="#ADD8E6" filter="url(#f1rg7att3wqbnz)" height="424.3477" style="stroke:#A80036;stroke-width:1.0;" width="10" x="325" y="127.7988"/><rect fill="#808080" filter="url(#f1rg7att3wqbnz)" height="29.3105" style="stroke:#A80036;stroke-width:1.0;" width="10" x="459" y="162.1094"/><rect fill="#808080" filter="url(#f1rg7att3wqbnz)" height="29.3105" style="stroke:#A80036;stroke-width:1.0;" width="10" x="459" y="279.3516"/><rect fill="#808080" filter="url(#f1rg7att3wqbnz)" height="29.3105" style="stroke:#A80036;stroke-width:1.0;" width="10" x="459" y="396.5938"/><rect fill="#808080" filter="url(#f1rg7att3wqbnz)" height="29.3105" style="stroke:#A80036;stroke-width:1.0;" width="10" x="459" y="513.8359"/><line style="stroke:#A80036;stroke-width:1.0;stroke-dasharray:2.0,2.0;" x1="330" x2="377" y1="114.7988" y2="114.7988"/><line style="stroke:#A80036;stroke-width:1.0;stroke-dasharray:2.0,2.0;" x1="377" x2="377" y1="114.7988" y2="127.7988"/><line style="stroke:#A80036;stroke-width:1.0;stroke-dasharray:2.0,2.0;" x1="336" x2="377" y1="127.7988" y2="127.7988"/><polygon fill="#A80036" points="346,123.7988,336,127.7988,346,131.7988,342,127.7988" style="stroke:#A80036;stroke-width:1.0;"/><text fill="#000000" font-family="sans-serif" font-size="13" lengthAdjust="spacing" textLength="29" x="342" y="110.0566">start</text><polygon fill="#A80036" points="447,158.1094,457,162.1094,447,166.1094,451,162.1094" style="stroke:#A80036;stroke-width:1.0;"/><line style="stroke:#A80036;stroke-width:1.0;stroke-dasharray:2.0,2.0;" x1="335" x2="453" y1="162.1094" y2="162.1094"/><text fill="#000000" font-family="sans-serif" font-size="13" lengthAdjust="spacing" textLength="52" x="342" y="157.3672">newBid()</text><polygon fill="#A80036" points="346,187.4199,336,191.4199,346,195.4199,342,191.4199" style="stroke:#A80036;stroke-width:1.0;"/><line style="stroke:#A80036;stroke-width:1.0;stroke-dasharray:2.0,2.0;" x1="340" x2="463" y1="191.4199" y2="191.4199"/><text fill="#000000" font-family="sans-serif" font-size="13" lengthAdjust="spacing" textLength="52" x="352" y="186.6777">返回结果</text><polygon fill="#A80036" points="56.5,216.7305,46.5,220.7305,56.5,224.7305,52.5,220.7305" style="stroke:#A80036;stroke-width:1.0;"/><line style="stroke:#A80036;stroke-width:1.0;stroke-dasharray:2.0,2.0;" x1="50.5" x2="324" y1="220.7305" y2="220.7305"/><text fill="#000000" font-family="sans-serif" font-size="13" lengthAdjust="spacing" textLength="110" x="62.5" y="215.9883">消息（Bid已创建）</text><polygon fill="#A80036" points="313,246.041,323,250.041,313,254.041,317,250.041" style="stroke:#A80036;stroke-width:1.0;"/><line style="stroke:#A80036;stroke-width:1.0;" x1="40.5" x2="319" y1="250.041" y2="250.041"/><text fill="#000000" font-family="sans-serif" font-size="13" lengthAdjust="spacing" textLength="97" x="47.5" y="245.2988">消息（Bid内容）</text><polygon fill="#A80036" points="447,275.3516,457,279.3516,447,283.3516,451,279.3516" style="stroke:#A80036;stroke-width:1.0;"/><line style="stroke:#A80036;stroke-width:1.0;stroke-dasharray:2.0,2.0;" x1="335" x2="453" y1="279.3516" y2="279.3516"/><text fill="#000000" font-family="sans-serif" font-size="13" lengthAdjust="spacing" textLength="103" x="342" y="274.6094">调用setContent()</text><polygon fill="#A80036" points="346,304.6621,336,308.6621,346,312.6621,342,308.6621" style="stroke:#A80036;stroke-width:1.0;"/><line style="stroke:#A80036;stroke-width:1.0;stroke-dasharray:2.0,2.0;" x1="340" x2="463" y1="308.6621" y2="308.6621"/><text fill="#000000" font-family="sans-serif" font-size="13" lengthAdjust="spacing" textLength="52" x="352" y="303.9199">返回结果</text><polygon fill="#A80036" points="135,333.9727,125,337.9727,135,341.9727,131,337.9727" style="stroke:#A80036;stroke-width:1.0;"/><line style="stroke:#A80036;stroke-width:1.0;" x1="129" x2="324" y1="337.9727" y2="337.9727"/><text fill="#000000" font-family="sans-serif" font-size="13" lengthAdjust="spacing" textLength="110" x="141" y="333.2305">消息（Bid待审批）</text><polygon fill="#A80036" points="313,363.2832,323,367.2832,313,371.2832,317,367.2832" style="stroke:#A80036;stroke-width:1.0;"/><line style="stroke:#A80036;stroke-width:1.0;" x1="119" x2="319" y1="367.2832" y2="367.2832"/><text fill="#000000" font-family="sans-serif" font-size="13" lengthAdjust="spacing" textLength="104" x="126" y="362.541">消息（审批通过）</text><polygon fill="#A80036" points="447,392.5938,457,396.5938,447,400.5938,451,396.5938" style="stroke:#A80036;stroke-width:1.0;"/><line style="stroke:#A80036;stroke-width:1.0;stroke-dasharray:2.0,2.0;" x1="335" x2="453" y1="396.5938" y2="396.5938"/><text fill="#000000" font-family="sans-serif" font-size="13" lengthAdjust="spacing" textLength="105" x="342" y="391.8516">调用setApprove()</text><polygon fill="#A80036" points="346,421.9043,336,425.9043,346,429.9043,342,425.9043" style="stroke:#A80036;stroke-width:1.0;"/><line style="stroke:#A80036;stroke-width:1.0;stroke-dasharray:2.0,2.0;" x1="340" x2="463" y1="425.9043" y2="425.9043"/><text fill="#000000" font-family="sans-serif" font-size="13" lengthAdjust="spacing" textLength="52" x="352" y="421.1621">返回结果</text><polygon fill="#A80036" points="207,451.2148,197,455.2148,207,459.2148,203,455.2148" style="stroke:#A80036;stroke-width:1.0;"/><line style="stroke:#A80036;stroke-width:1.0;" x1="201" x2="324" y1="455.2148" y2="455.2148"/><text fill="#000000" font-family="sans-serif" font-size="13" lengthAdjust="spacing" textLength="110" x="213" y="450.4727">消息（Bid待追踪）</text><polygon fill="#A80036" points="313,480.5254,323,484.5254,313,488.5254,317,484.5254" style="stroke:#A80036;stroke-width:1.0;"/><line style="stroke:#A80036;stroke-width:1.0;" x1="191" x2="319" y1="484.5254" y2="484.5254"/><text fill="#000000" font-family="sans-serif" font-size="13" lengthAdjust="spacing" textLength="104" x="198" y="479.7832">消息（追踪情况）</text><polygon fill="#A80036" points="447,509.8359,457,513.8359,447,517.8359,451,513.8359" style="stroke:#A80036;stroke-width:1.0;"/><line style="stroke:#A80036;stroke-width:1.0;stroke-dasharray:2.0,2.0;" x1="335" x2="453" y1="513.8359" y2="513.8359"/><text fill="#000000" font-family="sans-serif" font-size="13" lengthAdjust="spacing" textLength="98" x="342" y="509.0938">调用addAddon()</text><polygon fill="#A80036" points="346,539.1465,336,543.1465,346,547.1465,342,543.1465" style="stroke:#A80036;stroke-width:1.0;"/><line style="stroke:#A80036;stroke-width:1.0;stroke-dasharray:2.0,2.0;" x1="340" x2="463" y1="543.1465" y2="543.1465"/><text fill="#000000" font-family="sans-serif" font-size="13" lengthAdjust="spacing" textLength="52" x="352" y="538.4043">返回结果</text><!--MD5=[d93c903b2366ace2e151b110e97cdab0]
@startuml


actor Salesman as salesman
actor Manager as manager
actor Tracker as tracker
actor BidLogic as bidLogic
participant BidService     as service
bidLogic - -> bidLogic ++ #lightblue: start
bidLogic - -> service ++#grey: newBid()
service - -> bidLogic - -: 返回结果
bidLogic - -> salesman ++ #lightgreen: 消息（Bid已创建）
salesman -> bidLogic - -: 消息（Bid内容）
bidLogic - -> service ++ #grey: 调用setContent()
service - -> bidLogic - -: 返回结果
bidLogic -> manager ++ #lightgreen: 消息（Bid待审批）
manager -> bidLogic - -: 消息（审批通过）
bidLogic - -> service ++ #grey: 调用setApprove()
service - -> bidLogic - -: 返回结果
bidLogic -> tracker ++ #lightgreen: 消息（Bid待追踪）
tracker -> bidLogic - -: 消息（追踪情况）
bidLogic - -> service ++ #grey: 调用addAddon()
service - -> bidLogic - -: 返回结果


@enduml

PlantUML version 1.2022.1(Wed Feb 02 02:19:58 CST 2022)
(GPL source distribution)
Java Runtime: OpenJDK Runtime Environment
JVM: OpenJDK 64-Bit Server VM
Default Encoding: UTF-8
Language: zh
Country: CN
--></g></svg>