<?xml version="1.0" encoding="UTF-8" standalone="no"?><svg xmlns="http://www.w3.org/2000/svg" xmlns:xlink="http://www.w3.org/1999/xlink" contentScriptType="application/ecmascript" contentStyleType="text/css" height="373px" preserveAspectRatio="none" style="width:274px;height:373px;background:#FFFFFF;" version="1.1" viewBox="0 0 274 373" width="274px" zoomAndPan="magnify"><defs><filter height="300%" id="fj2lhyddkss1y" width="300%" x="-1" y="-1"><feGaussianBlur result="blurOut" stdDeviation="2.0"/><feColorMatrix in="blurOut" result="blurOut2" type="matrix" values="0 0 0 0 0 0 0 0 0 0 0 0 0 0 0 0 0 0 .4 0"/><feOffset dx="4.0" dy="4.0" in="blurOut2" result="blurOut3"/><feBlend in="SourceGraphic" in2="blurOut3" mode="normal"/></filter></defs><g><!--MD5=[e880dd5965e6271f43817eb6f20691fd]
entity BidService--><ellipse cx="232.5" cy="155" fill="#FEFECE" filter="url(#fj2lhyddkss1y)" rx="8" ry="8" style="stroke:#A80036;stroke-width:1.5;"/><path d="M232.5,163 L232.5,190 M219.5,171 L245.5,171 M232.5,190 L219.5,205 M232.5,190 L245.5,205 " fill="none" filter="url(#fj2lhyddkss1y)" style="stroke:#A80036;stroke-width:1.5;"/><text fill="#000000" font-family="sans-serif" font-size="14" lengthAdjust="spacing" textLength="69" x="198" y="224.0352">BidService</text><!--MD5=[6755c368d25cfa71adeab1c930b4c1a9]
entity Salesman--><ellipse cx="38.5" cy="155" fill="#FEFECE" filter="url(#fj2lhyddkss1y)" rx="8" ry="8" style="stroke:#A80036;stroke-width:1.5;"/><path d="M38.5,163 L38.5,190 M25.5,171 L51.5,171 M38.5,190 L25.5,205 M38.5,190 L51.5,205 " fill="none" filter="url(#fj2lhyddkss1y)" style="stroke:#A80036;stroke-width:1.5;"/><text fill="#000000" font-family="sans-serif" font-size="14" lengthAdjust="spacing" textLength="65" x="6" y="224.0352">Salesman</text><!--MD5=[327d8b0cc9017ef0d2f4054fa6547e20]
entity Manager--><ellipse cx="134.5" cy="14" fill="#FEFECE" filter="url(#fj2lhyddkss1y)" rx="8" ry="8" style="stroke:#A80036;stroke-width:1.5;"/><path d="M134.5,22 L134.5,49 M121.5,30 L147.5,30 M134.5,49 L121.5,64 M134.5,49 L147.5,64 " fill="none" filter="url(#fj2lhyddkss1y)" style="stroke:#A80036;stroke-width:1.5;"/><text fill="#000000" font-family="sans-serif" font-size="14" lengthAdjust="spacing" textLength="60" x="104.5" y="83.0352">Manager</text><!--MD5=[8cc799abc587bf02518f2c5e932807a9]
entity Tracker--><ellipse cx="134.5" cy="296" fill="#FEFECE" filter="url(#fj2lhyddkss1y)" rx="8" ry="8" style="stroke:#A80036;stroke-width:1.5;"/><path d="M134.5,304 L134.5,331 M121.5,312 L147.5,312 M134.5,331 L121.5,346 M134.5,331 L147.5,346 " fill="none" filter="url(#fj2lhyddkss1y)" style="stroke:#A80036;stroke-width:1.5;"/><text fill="#000000" font-family="sans-serif" font-size="14" lengthAdjust="spacing" textLength="52" x="108.5" y="365.0352">Tracker</text><!--MD5=[42ff90d1ab396eb8a2f8d4e9e0fd7b4d]
entity BidLogic--><ellipse cx="134.5" cy="155" fill="#FEFECE" filter="url(#fj2lhyddkss1y)" rx="8" ry="8" style="stroke:#A80036;stroke-width:1.5;"/><path d="M134.5,163 L134.5,190 M121.5,171 L147.5,171 M134.5,190 L121.5,205 M134.5,190 L147.5,205 " fill="none" filter="url(#fj2lhyddkss1y)" style="stroke:#A80036;stroke-width:1.5;"/><text fill="#000000" font-family="sans-serif" font-size="14" lengthAdjust="spacing" textLength="57" x="106" y="224.0352">BidLogic</text><!--MD5=[0c50aba5fbf602dbe3e1490b35219d86]
link Manager to BidLogic--><path d="M134.5,91.15 C134.5,106.79 134.5,124.31 134.5,139.94 " fill="none" id="Manager-BidLogic" style="stroke:#A80036;stroke-width:1.0;"/><polygon fill="#A80036" points="134.5,145.16,138.5,136.16,134.5,140.16,130.5,136.16,134.5,145.16" style="stroke:#A80036;stroke-width:1.0;"/><polygon fill="#A80036" points="134.5,85.83,130.5,94.83,134.5,90.83,138.5,94.83,134.5,85.83" style="stroke:#A80036;stroke-width:1.0;"/><ellipse cx="134.5" cy="115.5488" fill="#FFFFFF" rx="10" ry="10" style="stroke:#FFFFFF;stroke-width:1.0;"/><path d="M127.4289,122.6198 A10,10 0 0 0 141.5711 122.6198" fill="none" style="stroke:#A80036;stroke-width:1.5;"/><path d="M141.5711,108.4777 A10,10 0 0 0 127.4289 108.4777" fill="none" style="stroke:#A80036;stroke-width:1.5;"/><ellipse cx="134.5" cy="115.5488" fill="#FFFFFF" rx="6" ry="6" style="stroke:#A80036;stroke-width:1.5;"/><!--MD5=[0f3a8384ae75d89d1f12f7545360d15f]
link BidLogic to Tracker--><path d="M134.5,232.15 C134.5,247.79 134.5,265.31 134.5,280.94 " fill="none" id="BidLogic-Tracker" style="stroke:#A80036;stroke-width:1.0;"/><polygon fill="#A80036" points="134.5,286.16,138.5,277.16,134.5,281.16,130.5,277.16,134.5,286.16" style="stroke:#A80036;stroke-width:1.0;"/><polygon fill="#A80036" points="134.5,226.83,130.5,235.83,134.5,231.83,138.5,235.83,134.5,226.83" style="stroke:#A80036;stroke-width:1.0;"/><ellipse cx="134.5" cy="256.5488" fill="#FFFFFF" rx="10" ry="10" style="stroke:#FFFFFF;stroke-width:1.0;"/><path d="M127.4289,263.6198 A10,10 0 0 0 141.5711 263.6198" fill="none" style="stroke:#A80036;stroke-width:1.5;"/><path d="M141.5711,249.4777 A10,10 0 0 0 127.4289 249.4777" fill="none" style="stroke:#A80036;stroke-width:1.5;"/><ellipse cx="134.5" cy="256.5488" fill="#FFFFFF" rx="6" ry="6" style="stroke:#A80036;stroke-width:1.5;"/><!--MD5=[563036d4df801373d243b8e25ad1b048]
link Salesman to BidLogic--><path d="M76.27,186 C84.42,186 92.56,186 100.71,186 " fill="none" id="Salesman-BidLogic" style="stroke:#A80036;stroke-width:1.0;"/><polygon fill="#A80036" points="105.78,186,96.78,182,100.78,186,96.78,190,105.78,186" style="stroke:#A80036;stroke-width:1.0;"/><polygon fill="#A80036" points="71.12,186,80.1314,189.9743,76.12,185.9857,80.1085,181.9743,71.12,186" style="stroke:#A80036;stroke-width:1.0;"/><ellipse cx="88.49" cy="186" fill="#FFFFFF" rx="10" ry="10" style="stroke:#FFFFFF;stroke-width:1.0;"/><path d="M95.5611,193.0711 A10,10 0 0 0 95.5611 178.9289" fill="none" style="stroke:#A80036;stroke-width:1.5;"/><path d="M81.4189,178.9289 A10,10 0 0 0 81.4189 193.0711" fill="none" style="stroke:#A80036;stroke-width:1.5;"/><ellipse cx="88.49" cy="186" fill="#FFFFFF" rx="6" ry="6" style="stroke:#A80036;stroke-width:1.5;"/><!--MD5=[f7c8dd7ad285619a51bc5d521361ea71]
link BidLogic to BidService--><path d="M168.35,186 C176.5,186 184.64,186 192.78,186 " fill="none" id="BidLogic-BidService" style="stroke:#A80036;stroke-width:1.0;"/><polygon fill="#A80036" points="197.86,186,188.86,182,192.86,186,188.86,190,197.86,186" style="stroke:#A80036;stroke-width:1.0;"/><polygon fill="#A80036" points="163.21,186,172.21,190,168.21,186,172.21,182,163.21,186" style="stroke:#A80036;stroke-width:1.0;"/><ellipse cx="180.5688" cy="186" fill="#FFFFFF" rx="10" ry="10" style="stroke:#FFFFFF;stroke-width:1.0;"/><path d="M187.6398,193.0711 A10,10 0 0 0 187.6398 178.9289" fill="none" style="stroke:#A80036;stroke-width:1.5;"/><path d="M173.4977,178.9289 A10,10 0 0 0 173.4977 193.0711" fill="none" style="stroke:#A80036;stroke-width:1.5;"/><ellipse cx="180.5688" cy="186" fill="#FFFFFF" rx="6" ry="6" style="stroke:#A80036;stroke-width:1.5;"/><!--MD5=[c090af8a51e154bff79cc1adbcf40a28]
@startuml
actor BidService
actor Salesman
actor Manager
actor Tracker
actor BidLogic

BidLogic <-up(0)-> Manager
BidLogic <-do(0)-> Tracker
BidLogic <-le(0)-> Salesman
BidLogic <-ri(0)-> BidService


@enduml

PlantUML version 1.2022.1(Wed Feb 02 02:19:58 CST 2022)
(GPL source distribution)
Java Runtime: OpenJDK Runtime Environment
JVM: OpenJDK 64-Bit Server VM
Default Encoding: UTF-8
Language: zh
Country: CN
--></g></svg>