<?xml version="1.0" encoding="UTF-8" standalone="no"?><svg xmlns="http://www.w3.org/2000/svg" xmlns:xlink="http://www.w3.org/1999/xlink" contentScriptType="application/ecmascript" contentStyleType="text/css" height="587px" preserveAspectRatio="none" style="width:517px;height:587px;background:#FFFFFF;" version="1.1" viewBox="0 0 517 587" width="517px" zoomAndPan="magnify"><defs><filter height="300%" id="f1casuvxxkwjbr" width="300%" x="-1" y="-1"><feGaussianBlur result="blurOut" stdDeviation="2.0"/><feColorMatrix in="blurOut" result="blurOut2" type="matrix" values="0 0 0 0 0 0 0 0 0 0 0 0 0 0 0 0 0 0 .4 0"/><feOffset dx="4.0" dy="4.0" in="blurOut2" result="blurOut3"/><feBlend in="SourceGraphic" in2="blurOut3" mode="normal"/></filter></defs><g><rect fill="#90EE90" filter="url(#f1casuvxxkwjbr)" height="29.3105" style="stroke:#A80036;stroke-width:1.0;" width="10" x="35.5" y="162.1094"/><rect fill="#90EE90" filter="url(#f1casuvxxkwjbr)" height="29.3105" style="stroke:#A80036;stroke-width:1.0;" width="10" x="114" y="279.3516"/><rect fill="#90EE90" filter="url(#f1casuvxxkwjbr)" height="29.3105" style="stroke:#A80036;stroke-width:1.0;" width="10" x="186" y="396.5938"/><rect fill="#ADD8E6" filter="url(#f1casuvxxkwjbr)" height="365.7266" style="stroke:#A80036;stroke-width:1.0;" width="10" x="325" y="127.7988"/><rect fill="#808080" filter="url(#f1casuvxxkwjbr)" height="29.3105" style="stroke:#A80036;stroke-width:1.0;" width="10" x="459" y="220.7305"/><rect fill="#808080" filter="url(#f1casuvxxkwjbr)" height="29.3105" style="stroke:#A80036;stroke-width:1.0;" width="10" x="459" y="337.9727"/><rect fill="#808080" filter="url(#f1casuvxxkwjbr)" height="29.3105" style="stroke:#A80036;stroke-width:1.0;" width="10" x="459" y="455.2148"/><line style="stroke:#A80036;stroke-width:1.0;stroke-dasharray:5.0,5.0;" x1="40" x2="40" y1="88.4883" y2="502.5254"/><line style="stroke:#A80036;stroke-width:1.0;stroke-dasharray:5.0,5.0;" x1="119" x2="119" y1="88.4883" y2="502.5254"/><line style="stroke:#A80036;stroke-width:1.0;stroke-dasharray:5.0,5.0;" x1="191" x2="191" y1="88.4883" y2="502.5254"/><line style="stroke:#A80036;stroke-width:1.0;stroke-dasharray:5.0,5.0;" x1="329.5" x2="329.5" y1="88.4883" y2="502.5254"/><line style="stroke:#A80036;stroke-width:1.0;stroke-dasharray:5.0,5.0;" x1="463.5" x2="463.5" y1="88.4883" y2="502.5254"/><text fill="#000000" font-family="sans-serif" font-size="14" lengthAdjust="spacing" textLength="65" x="5" y="85.5352">Salesman</text><ellipse cx="40.5" cy="15" fill="#FEFECE" filter="url(#f1casuvxxkwjbr)" rx="8" ry="8" style="stroke:#A80036;stroke-width:2.0;"/><path d="M40.5,23 L40.5,50 M27.5,31 L53.5,31 M40.5,50 L27.5,65 M40.5,50 L53.5,65 " fill="none" filter="url(#f1casuvxxkwjbr)" style="stroke:#A80036;stroke-width:2.0;"/><text fill="#000000" font-family="sans-serif" font-size="14" lengthAdjust="spacing" textLength="65" x="5" y="515.0605">Salesman</text><ellipse cx="40.5" cy="528.0137" fill="#FEFECE" filter="url(#f1casuvxxkwjbr)" rx="8" ry="8" style="stroke:#A80036;stroke-width:2.0;"/><path d="M40.5,536.0137 L40.5,563.0137 M27.5,544.0137 L53.5,544.0137 M40.5,563.0137 L27.5,578.0137 M40.5,563.0137 L53.5,578.0137 " fill="none" filter="url(#f1casuvxxkwjbr)" style="stroke:#A80036;stroke-width:2.0;"/><text fill="#000000" font-family="sans-serif" font-size="14" lengthAdjust="spacing" textLength="60" x="86" y="85.5352">Manager</text><ellipse cx="119" cy="15" fill="#FEFECE" filter="url(#f1casuvxxkwjbr)" rx="8" ry="8" style="stroke:#A80036;stroke-width:2.0;"/><path d="M119,23 L119,50 M106,31 L132,31 M119,50 L106,65 M119,50 L132,65 " fill="none" filter="url(#f1casuvxxkwjbr)" style="stroke:#A80036;stroke-width:2.0;"/><text fill="#000000" font-family="sans-serif" font-size="14" lengthAdjust="spacing" textLength="60" x="86" y="515.0605">Manager</text><ellipse cx="119" cy="528.0137" fill="#FEFECE" filter="url(#f1casuvxxkwjbr)" rx="8" ry="8" style="stroke:#A80036;stroke-width:2.0;"/><path d="M119,536.0137 L119,563.0137 M106,544.0137 L132,544.0137 M119,563.0137 L106,578.0137 M119,563.0137 L132,578.0137 " fill="none" filter="url(#f1casuvxxkwjbr)" style="stroke:#A80036;stroke-width:2.0;"/><text fill="#000000" font-family="sans-serif" font-size="14" lengthAdjust="spacing" textLength="52" x="162" y="85.5352">Tracker</text><ellipse cx="191" cy="15" fill="#FEFECE" filter="url(#f1casuvxxkwjbr)" rx="8" ry="8" style="stroke:#A80036;stroke-width:2.0;"/><path d="M191,23 L191,50 M178,31 L204,31 M191,50 L178,65 M191,50 L204,65 " fill="none" filter="url(#f1casuvxxkwjbr)" style="stroke:#A80036;stroke-width:2.0;"/><text fill="#000000" font-family="sans-serif" font-size="14" lengthAdjust="spacing" textLength="52" x="162" y="515.0605">Tracker</text><ellipse cx="191" cy="528.0137" fill="#FEFECE" filter="url(#f1casuvxxkwjbr)" rx="8" ry="8" style="stroke:#A80036;stroke-width:2.0;"/><path d="M191,536.0137 L191,563.0137 M178,544.0137 L204,544.0137 M191,563.0137 L178,578.0137 M191,563.0137 L204,578.0137 " fill="none" filter="url(#f1casuvxxkwjbr)" style="stroke:#A80036;stroke-width:2.0;"/><text fill="#000000" font-family="sans-serif" font-size="14" lengthAdjust="spacing" textLength="57" x="298.5" y="85.5352">BidLogic</text><ellipse cx="330" cy="15" fill="#FEFECE" filter="url(#f1casuvxxkwjbr)" rx="8" ry="8" style="stroke:#A80036;stroke-width:2.0;"/><path d="M330,23 L330,50 M317,31 L343,31 M330,50 L317,65 M330,50 L343,65 " fill="none" filter="url(#f1casuvxxkwjbr)" style="stroke:#A80036;stroke-width:2.0;"/><text fill="#000000" font-family="sans-serif" font-size="14" lengthAdjust="spacing" textLength="57" x="298.5" y="515.0605">BidLogic</text><ellipse cx="330" cy="528.0137" fill="#FEFECE" filter="url(#f1casuvxxkwjbr)" rx="8" ry="8" style="stroke:#A80036;stroke-width:2.0;"/><path d="M330,536.0137 L330,563.0137 M317,544.0137 L343,544.0137 M330,563.0137 L317,578.0137 M330,563.0137 L343,578.0137 " fill="none" filter="url(#f1casuvxxkwjbr)" style="stroke:#A80036;stroke-width:2.0;"/><rect fill="#FEFECE" filter="url(#f1casuvxxkwjbr)" height="30.4883" style="stroke:#A80036;stroke-width:1.5;" width="83" x="420.5" y="53"/><text fill="#000000" font-family="sans-serif" font-size="14" lengthAdjust="spacing" textLength="69" x="427.5" y="73.5352">BidService</text><rect fill="#FEFECE" filter="url(#f1casuvxxkwjbr)" height="30.4883" style="stroke:#A80036;stroke-width:1.5;" width="83" x="420.5" y="501.5254"/><text fill="#000000" font-family="sans-serif" font-size="14" lengthAdjust="spacing" textLength="69" x="427.5" y="522.0605">BidService</text><rect fill="#90EE90" filter="url(#f1casuvxxkwjbr)" height="29.3105" style="stroke:#A80036;stroke-width:1.0;" width="10" x="35.5" y="162.1094"/><rect fill="#90EE90" filter="url(#f1casuvxxkwjbr)" height="29.3105" style="stroke:#A80036;stroke-width:1.0;" width="10" x="114" y="279.3516"/><rect fill="#90EE90" filter="url(#f1casuvxxkwjbr)" height="29.3105" style="stroke:#A80036;stroke-width:1.0;" width="10" x="186" y="396.5938"/><rect fill="#ADD8E6" filter="url(#f1casuvxxkwjbr)" height="365.7266" style="stroke:#A80036;stroke-width:1.0;" width="10" x="325" y="127.7988"/><rect fill="#808080" filter="url(#f1casuvxxkwjbr)" height="29.3105" style="stroke:#A80036;stroke-width:1.0;" width="10" x="459" y="220.7305"/><rect fill="#808080" filter="url(#f1casuvxxkwjbr)" height="29.3105" style="stroke:#A80036;stroke-width:1.0;" width="10" x="459" y="337.9727"/><rect fill="#808080" filter="url(#f1casuvxxkwjbr)" height="29.3105" style="stroke:#A80036;stroke-width:1.0;" width="10" x="459" y="455.2148"/><line style="stroke:#A80036;stroke-width:1.0;" x1="330" x2="377" y1="114.7988" y2="114.7988"/><line style="stroke:#A80036;stroke-width:1.0;" x1="377" x2="377" y1="114.7988" y2="127.7988"/><line style="stroke:#A80036;stroke-width:1.0;" x1="336" x2="377" y1="127.7988" y2="127.7988"/><polygon fill="#A80036" points="346,123.7988,336,127.7988,346,131.7988,342,127.7988" style="stroke:#A80036;stroke-width:1.0;"/><text fill="#000000" font-family="sans-serif" font-size="13" lengthAdjust="spacing" textLength="29" x="342" y="110.0566">start</text><polygon fill="#A80036" points="56.5,158.1094,46.5,162.1094,56.5,166.1094,52.5,162.1094" style="stroke:#A80036;stroke-width:1.0;"/><line style="stroke:#A80036;stroke-width:1.0;" x1="50.5" x2="324" y1="162.1094" y2="162.1094"/><text fill="#000000" font-family="sans-serif" font-size="13" lengthAdjust="spacing" textLength="110" x="62.5" y="157.3672">消息（Bid已创建）</text><polygon fill="#A80036" points="313,187.4199,323,191.4199,313,195.4199,317,191.4199" style="stroke:#A80036;stroke-width:1.0;"/><line style="stroke:#A80036;stroke-width:1.0;" x1="40.5" x2="319" y1="191.4199" y2="191.4199"/><text fill="#000000" font-family="sans-serif" font-size="13" lengthAdjust="spacing" textLength="97" x="47.5" y="186.6777">消息（Bid内容）</text><polygon fill="#A80036" points="447,216.7305,457,220.7305,447,224.7305,451,220.7305" style="stroke:#A80036;stroke-width:1.0;"/><line style="stroke:#A80036;stroke-width:1.0;stroke-dasharray:2.0,2.0;" x1="335" x2="453" y1="220.7305" y2="220.7305"/><text fill="#000000" font-family="sans-serif" font-size="13" lengthAdjust="spacing" textLength="103" x="342" y="215.9883">调用setContent()</text><polygon fill="#A80036" points="346,246.041,336,250.041,346,254.041,342,250.041" style="stroke:#A80036;stroke-width:1.0;"/><line style="stroke:#A80036;stroke-width:1.0;stroke-dasharray:2.0,2.0;" x1="340" x2="463" y1="250.041" y2="250.041"/><text fill="#000000" font-family="sans-serif" font-size="13" lengthAdjust="spacing" textLength="52" x="352" y="245.2988">返回结果</text><polygon fill="#A80036" points="135,275.3516,125,279.3516,135,283.3516,131,279.3516" style="stroke:#A80036;stroke-width:1.0;"/><line style="stroke:#A80036;stroke-width:1.0;" x1="129" x2="324" y1="279.3516" y2="279.3516"/><text fill="#000000" font-family="sans-serif" font-size="13" lengthAdjust="spacing" textLength="110" x="141" y="274.6094">消息（Bid待审批）</text><polygon fill="#A80036" points="313,304.6621,323,308.6621,313,312.6621,317,308.6621" style="stroke:#A80036;stroke-width:1.0;"/><line style="stroke:#A80036;stroke-width:1.0;" x1="119" x2="319" y1="308.6621" y2="308.6621"/><text fill="#000000" font-family="sans-serif" font-size="13" lengthAdjust="spacing" textLength="104" x="126" y="303.9199">消息（审批通过）</text><polygon fill="#A80036" points="447,333.9727,457,337.9727,447,341.9727,451,337.9727" style="stroke:#A80036;stroke-width:1.0;"/><line style="stroke:#A80036;stroke-width:1.0;stroke-dasharray:2.0,2.0;" x1="335" x2="453" y1="337.9727" y2="337.9727"/><text fill="#000000" font-family="sans-serif" font-size="13" lengthAdjust="spacing" textLength="105" x="342" y="333.2305">调用setApprove()</text><polygon fill="#A80036" points="346,363.2832,336,367.2832,346,371.2832,342,367.2832" style="stroke:#A80036;stroke-width:1.0;"/><line style="stroke:#A80036;stroke-width:1.0;stroke-dasharray:2.0,2.0;" x1="340" x2="463" y1="367.2832" y2="367.2832"/><text fill="#000000" font-family="sans-serif" font-size="13" lengthAdjust="spacing" textLength="52" x="352" y="362.541">返回结果</text><polygon fill="#A80036" points="207,392.5938,197,396.5938,207,400.5938,203,396.5938" style="stroke:#A80036;stroke-width:1.0;"/><line style="stroke:#A80036;stroke-width:1.0;" x1="201" x2="324" y1="396.5938" y2="396.5938"/><text fill="#000000" font-family="sans-serif" font-size="13" lengthAdjust="spacing" textLength="110" x="213" y="391.8516">消息（Bid待追踪）</text><polygon fill="#A80036" points="313,421.9043,323,425.9043,313,429.9043,317,425.9043" style="stroke:#A80036;stroke-width:1.0;"/><line style="stroke:#A80036;stroke-width:1.0;" x1="191" x2="319" y1="425.9043" y2="425.9043"/><text fill="#000000" font-family="sans-serif" font-size="13" lengthAdjust="spacing" textLength="104" x="198" y="421.1621">消息（追踪情况）</text><polygon fill="#A80036" points="447,451.2148,457,455.2148,447,459.2148,451,455.2148" style="stroke:#A80036;stroke-width:1.0;"/><line style="stroke:#A80036;stroke-width:1.0;stroke-dasharray:2.0,2.0;" x1="335" x2="453" y1="455.2148" y2="455.2148"/><text fill="#000000" font-family="sans-serif" font-size="13" lengthAdjust="spacing" textLength="98" x="342" y="450.4727">调用addAddon()</text><polygon fill="#A80036" points="346,480.5254,336,484.5254,346,488.5254,342,484.5254" style="stroke:#A80036;stroke-width:1.0;"/><line style="stroke:#A80036;stroke-width:1.0;stroke-dasharray:2.0,2.0;" x1="340" x2="463" y1="484.5254" y2="484.5254"/><text fill="#000000" font-family="sans-serif" font-size="13" lengthAdjust="spacing" textLength="52" x="352" y="479.7832">返回结果</text><!--MD5=[7fe55e1be29976113500b579d5e04bb2]
@startuml


actor Salesman as salesman
actor Manager as manager
actor Tracker as tracker
actor BidLogic as bidLogic
participant BidService     as service

bidLogic -> bidLogic ++ #lightblue: start
bidLogic -> salesman ++ #lightgreen: 消息（Bid已创建）
salesman -> bidLogic - -: 消息（Bid内容）
bidLogic - -> service ++ #grey: 调用setContent()
service - -> bidLogic - -: 返回结果
bidLogic -> manager ++ #lightgreen: 消息（Bid待审批）
manager -> bidLogic - -: 消息（审批通过）
bidLogic - -> service ++ #grey: 调用setApprove()
service - -> bidLogic - -: 返回结果
bidLogic -> tracker ++ #lightgreen: 消息（Bid待追踪）
tracker -> bidLogic - -: 消息（追踪情况）
bidLogic - -> service ++ #grey: 调用addAddon()
service - -> bidLogic - -: 返回结果


@enduml

PlantUML version 1.2022.1(Wed Feb 02 02:19:58 CST 2022)
(GPL source distribution)
Java Runtime: OpenJDK Runtime Environment
JVM: OpenJDK 64-Bit Server VM
Default Encoding: UTF-8
Language: zh
Country: CN
--></g></svg>