<?xml version="1.0" encoding="UTF-8" standalone="no"?><svg xmlns="http://www.w3.org/2000/svg" xmlns:xlink="http://www.w3.org/1999/xlink" contentScriptType="application/ecmascript" contentStyleType="text/css" height="327px" preserveAspectRatio="none" style="width:572px;height:327px;background:#FFFFFF;" version="1.1" viewBox="0 0 572 327" width="572px" zoomAndPan="magnify"><defs><filter height="300%" id="f163b5qqja35wo" width="300%" x="-1" y="-1"><feGaussianBlur result="blurOut" stdDeviation="2.0"/><feColorMatrix in="blurOut" result="blurOut2" type="matrix" values="0 0 0 0 0 0 0 0 0 0 0 0 0 0 0 0 0 0 .4 0"/><feOffset dx="4.0" dy="4.0" in="blurOut2" result="blurOut3"/><feBlend in="SourceGraphic" in2="blurOut3" mode="normal"/></filter></defs><g><g id="created"><rect fill="#FEFECE" filter="url(#f163b5qqja35wo)" height="50.6211" rx="12.5" ry="12.5" style="stroke:#A80036;stroke-width:1.5;" width="100" x="61" y="7"/><line style="stroke:#A80036;stroke-width:1.5;" x1="61" x2="161" y1="33.4883" y2="33.4883"/><text fill="#000000" font-family="sans-serif" font-size="14" lengthAdjust="spacing" textLength="51" x="85.5" y="25.5352">created</text><text fill="#000000" font-family="sans-serif" font-size="12" lengthAdjust="spacing" textLength="80" x="66" y="50.0898">新建"投标"对象</text></g><g id="editing"><rect fill="#FEFECE" filter="url(#f163b5qqja35wo)" height="50.6211" rx="12.5" ry="12.5" style="stroke:#A80036;stroke-width:1.5;" width="68" x="227" y="7"/><line style="stroke:#A80036;stroke-width:1.5;" x1="227" x2="295" y1="33.4883" y2="33.4883"/><text fill="#000000" font-family="sans-serif" font-size="14" lengthAdjust="spacing" textLength="48" x="237" y="25.5352">editing</text><text fill="#000000" font-family="sans-serif" font-size="12" lengthAdjust="spacing" textLength="48" x="232" y="50.0898">内容编辑</text></g><g id="reviewing"><rect fill="#FEFECE" filter="url(#f163b5qqja35wo)" height="50.6211" rx="12.5" ry="12.5" style="stroke:#A80036;stroke-width:1.5;" width="92" x="215" y="135"/><line style="stroke:#A80036;stroke-width:1.5;" x1="215" x2="307" y1="161.4883" y2="161.4883"/><text fill="#000000" font-family="sans-serif" font-size="14" lengthAdjust="spacing" textLength="66" x="228" y="153.5352">reviewing</text><text fill="#000000" font-family="sans-serif" font-size="12" lengthAdjust="spacing" textLength="72" x="220" y="178.0898">公司领导审核</text></g><g id="tracking"><rect fill="#FEFECE" filter="url(#f163b5qqja35wo)" height="50.6211" rx="12.5" ry="12.5" style="stroke:#A80036;stroke-width:1.5;" width="92" x="394" y="135"/><line style="stroke:#A80036;stroke-width:1.5;" x1="394" x2="486" y1="161.4883" y2="161.4883"/><text fill="#000000" font-family="sans-serif" font-size="14" lengthAdjust="spacing" textLength="56" x="412" y="153.5352">tracking</text><text fill="#000000" font-family="sans-serif" font-size="12" lengthAdjust="spacing" textLength="72" x="399" y="178.0898">投标状态追踪</text></g><g id="closed"><rect fill="#FEFECE" filter="url(#f163b5qqja35wo)" height="50.6211" rx="12.5" ry="12.5" style="stroke:#A80036;stroke-width:1.5;" width="64" x="408" y="263"/><line style="stroke:#A80036;stroke-width:1.5;" x1="408" x2="472" y1="289.4883" y2="289.4883"/><text fill="#000000" font-family="sans-serif" font-size="14" lengthAdjust="spacing" textLength="44" x="418" y="281.5352">closed</text><text fill="#000000" font-family="sans-serif" font-size="12" lengthAdjust="spacing" textLength="24" x="413" y="306.0898">结束</text></g><ellipse cx="16" cy="32.5" fill="#000000" filter="url(#f163b5qqja35wo)" rx="10" ry="10" style="stroke:none;stroke-width:1.0;"/><ellipse cx="517" cy="288.5" fill="none" filter="url(#f163b5qqja35wo)" rx="10" ry="10" style="stroke:#000000;stroke-width:1.0;"/><ellipse cx="517.5" cy="289" fill="#000000" rx="6" ry="6" style="stroke:none;stroke-width:1.0;"/><!--MD5=[9b71c4725ac9801b7644efa3121aaaab]
link *start to created--><path d="M26.02,32.5 C35.91,32.5 45.81,32.5 55.7,32.5 " fill="none" id="*start-to-created" style="stroke:#A80036;stroke-width:1.0;"/><polygon fill="#A80036" points="60.87,32.5,51.87,28.5,55.87,32.5,51.87,36.5,60.87,32.5" style="stroke:#A80036;stroke-width:1.0;"/><!--MD5=[890e0b1fcec91c663650c2ee710d305e]
link created to editing--><path d="M161.37,32.5 C180.97,32.5 203.1,32.5 221.52,32.5 " fill="none" id="created-to-editing" style="stroke:#A80036;stroke-width:1.0;"/><polygon fill="#A80036" points="226.61,32.5,217.61,28.5,221.61,32.5,217.61,36.5,226.61,32.5" style="stroke:#A80036;stroke-width:1.0;"/><text fill="#000000" font-family="sans-serif" font-size="13" lengthAdjust="spacing" textLength="29" x="179.5" y="26.0684">start</text><!--MD5=[27e3b90cb4cd6727cf5963eca24c33c7]
link editing to reviewing--><path d="M233.85,58.22 C226.26,66.82 219,77.07 215,88 C209.44,103.2 217.09,118.5 227.64,131.02 " fill="none" id="editing-to-reviewing" style="stroke:#A80036;stroke-width:1.0;"/><polygon fill="#A80036" points="231,134.81,228.0459,125.4146,227.6924,131.0604,222.0466,130.7068,231,134.81" style="stroke:#A80036;stroke-width:1.0;"/><text fill="#000000" font-family="sans-serif" font-size="13" lengthAdjust="spacing" textLength="44" x="216" y="101.5684">submit</text><!--MD5=[2b2cc35bd244b0dfb070438d165230b8]
reverse link editing to reviewing--><path d="M263.6,63.55 C264.18,71.49 264.71,80.07 265,88 C265.57,103.53 264.63,120.94 263.52,134.69 " fill="none" id="editing-backto-reviewing" style="stroke:#A80036;stroke-width:1.0;"/><polygon fill="#A80036" points="263.19,58.17,259.8961,67.4517,263.5757,63.1551,267.8723,66.8347,263.19,58.17" style="stroke:#A80036;stroke-width:1.0;"/><text fill="#000000" font-family="sans-serif" font-size="13" lengthAdjust="spacing" textLength="69" x="266" y="101.5684">disapprove</text><!--MD5=[251ecb2adabfc11800a34fd27363c50b]
link editing to editing--><path d="M295.08,21 C313.35,19.04 330,22.88 330,32.5 C330,41.22 316.33,45.19 300.17,44.4 " fill="none" id="editing-to-editing" style="stroke:#A80036;stroke-width:1.0;"/><polygon fill="#A80036" points="295.08,44,303.7447,48.6823,300.0651,44.3857,304.3617,40.7061,295.08,44" style="stroke:#A80036;stroke-width:1.0;"/><text fill="#000000" font-family="sans-serif" font-size="13" lengthAdjust="spacing" textLength="28" x="336" y="37.5684">save</text><!--MD5=[a8cffae062843e4e24d21cc6371e0102]
link reviewing to tracking--><path d="M307.1,160.5 C332.05,160.5 362.95,160.5 388.68,160.5 " fill="none" id="reviewing-to-tracking" style="stroke:#A80036;stroke-width:1.0;"/><polygon fill="#A80036" points="393.75,160.5,384.75,156.5,388.75,160.5,384.75,164.5,393.75,160.5" style="stroke:#A80036;stroke-width:1.0;"/><text fill="#000000" font-family="sans-serif" font-size="13" lengthAdjust="spacing" textLength="50" x="325.5" y="154.0684">approve</text><!--MD5=[5ea14640d6d19a8d73baeaabeeadef4b]
link tracking to tracking--><path d="M486.21,148.59 C505.08,147.84 521,151.81 521,160.5 C521,168.37 507.93,172.37 491.43,172.5 " fill="none" id="tracking-to-tracking" style="stroke:#A80036;stroke-width:1.0;"/><polygon fill="#A80036" points="486.21,172.41,495.1519,176.5382,491.2095,172.4814,495.2662,168.539,486.21,172.41" style="stroke:#A80036;stroke-width:1.0;"/><text fill="#000000" font-family="sans-serif" font-size="13" lengthAdjust="spacing" textLength="32" x="527" y="165.5684">track</text><!--MD5=[b837b94c160a0ce16c4b6c4a95ce3009]
link tracking to closed--><path d="M440,186.09 C440,206.65 440,236.02 440,257.87 " fill="none" id="tracking-to-closed" style="stroke:#A80036;stroke-width:1.0;"/><polygon fill="#A80036" points="440,262.97,444,253.97,440,257.97,436,253.97,440,262.97" style="stroke:#A80036;stroke-width:1.0;"/><text fill="#000000" font-family="sans-serif" font-size="13" lengthAdjust="spacing" textLength="46" x="441" y="229.5684">finalize</text><!--MD5=[f2c71d9cae1afe899246a1b2795b9933]
link closed to *end--><path d="M472.18,288.5 C482.02,288.5 491.86,288.5 501.7,288.5 " fill="none" id="closed-to-*end" style="stroke:#A80036;stroke-width:1.0;"/><polygon fill="#A80036" points="506.85,288.5,497.85,284.5,501.85,288.5,497.85,292.5,506.85,288.5" style="stroke:#A80036;stroke-width:1.0;"/><!--MD5=[524f743c6418d15a5c5a9ec095770afe]
@startuml
state created : 新建"投标"对象
state editing : 内容编辑
state reviewing : 公司领导审核
state tracking : 投标状态追踪
state closed : 结束


[*] -right-> created

created -right-> editing : start
editing -down-> reviewing : submit
editing - -> editing : save

reviewing -right-> tracking : approve
reviewing -up-> editing : disapprove

tracking - -> tracking : track

tracking -down-> closed : finalize
closed -right-> [*]

@enduml

PlantUML version 1.2022.1(Wed Feb 02 02:19:58 CST 2022)
(GPL source distribution)
Java Runtime: OpenJDK Runtime Environment
JVM: OpenJDK 64-Bit Server VM
Default Encoding: UTF-8
Language: zh
Country: CN
--></g></svg>