<?xml version="1.0" encoding="UTF-8" standalone="no"?><svg xmlns="http://www.w3.org/2000/svg" xmlns:xlink="http://www.w3.org/1999/xlink" contentScriptType="application/ecmascript" contentStyleType="text/css" height="325px" preserveAspectRatio="none" style="width:524px;height:325px;background:#FFFFFF;" version="1.1" viewBox="0 0 524 325" width="524px" zoomAndPan="magnify"><defs><filter height="300%" id="f1k6wzt8yvo1gt" width="300%" x="-1" y="-1"><feGaussianBlur result="blurOut" stdDeviation="2.0"/><feColorMatrix in="blurOut" result="blurOut2" type="matrix" values="0 0 0 0 0 0 0 0 0 0 0 0 0 0 0 0 0 0 .4 0"/><feOffset dx="4.0" dy="4.0" in="blurOut2" result="blurOut3"/><feBlend in="SourceGraphic" in2="blurOut3" mode="normal"/></filter></defs><g><ellipse cx="16" cy="32" fill="#000000" filter="url(#f1k6wzt8yvo1gt)" rx="10" ry="10" style="stroke:none;stroke-width:1.0;"/><g id="created"><rect fill="#FEFECE" filter="url(#f1k6wzt8yvo1gt)" height="50" rx="12.5" ry="12.5" style="stroke:#A80036;stroke-width:1.5;" width="71" x="61.5" y="7"/><line style="stroke:#A80036;stroke-width:1.5;" x1="61.5" x2="132.5" y1="33.4883" y2="33.4883"/><text fill="#000000" font-family="sans-serif" font-size="14" lengthAdjust="spacing" textLength="51" x="71.5" y="25.5352">created</text></g><g id="editing"><rect fill="#FEFECE" filter="url(#f1k6wzt8yvo1gt)" height="50" rx="12.5" ry="12.5" style="stroke:#A80036;stroke-width:1.5;" width="68" x="198" y="7"/><line style="stroke:#A80036;stroke-width:1.5;" x1="198" x2="266" y1="33.4883" y2="33.4883"/><text fill="#000000" font-family="sans-serif" font-size="14" lengthAdjust="spacing" textLength="48" x="208" y="25.5352">editing</text></g><g id="reviewing"><rect fill="#FEFECE" filter="url(#f1k6wzt8yvo1gt)" height="50" rx="12.5" ry="12.5" style="stroke:#A80036;stroke-width:1.5;" width="86" x="189" y="134"/><line style="stroke:#A80036;stroke-width:1.5;" x1="189" x2="275" y1="160.4883" y2="160.4883"/><text fill="#000000" font-family="sans-serif" font-size="14" lengthAdjust="spacing" textLength="66" x="199" y="152.5352">reviewing</text></g><g id="tracking"><rect fill="#FEFECE" filter="url(#f1k6wzt8yvo1gt)" height="50" rx="12.5" ry="12.5" style="stroke:#A80036;stroke-width:1.5;" width="76" x="362" y="134"/><line style="stroke:#A80036;stroke-width:1.5;" x1="362" x2="438" y1="160.4883" y2="160.4883"/><text fill="#000000" font-family="sans-serif" font-size="14" lengthAdjust="spacing" textLength="56" x="372" y="152.5352">tracking</text></g><g id="closed"><rect fill="#FEFECE" filter="url(#f1k6wzt8yvo1gt)" height="50" rx="12.5" ry="12.5" style="stroke:#A80036;stroke-width:1.5;" width="64" x="368" y="261"/><line style="stroke:#A80036;stroke-width:1.5;" x1="368" x2="432" y1="287.4883" y2="287.4883"/><text fill="#000000" font-family="sans-serif" font-size="14" lengthAdjust="spacing" textLength="44" x="378" y="279.5352">closed</text></g><ellipse cx="477" cy="286" fill="none" filter="url(#f1k6wzt8yvo1gt)" rx="10" ry="10" style="stroke:#000000;stroke-width:1.0;"/><ellipse cx="477.5" cy="286.5" fill="#000000" rx="6" ry="6" style="stroke:none;stroke-width:1.0;"/><!--MD5=[9b71c4725ac9801b7644efa3121aaaab]
link *start to created--><path d="M26.12,32 C36.11,32 46.09,32 56.07,32 " fill="none" id="*start-to-created" style="stroke:#A80036;stroke-width:1.0;"/><polygon fill="#A80036" points="61.29,32,52.29,28,56.29,32,52.29,36,61.29,32" style="stroke:#A80036;stroke-width:1.0;"/><!--MD5=[890e0b1fcec91c663650c2ee710d305e]
link created to editing--><path d="M132.82,32 C151.24,32 173.74,32 192.64,32 " fill="none" id="created-to-editing" style="stroke:#A80036;stroke-width:1.0;"/><polygon fill="#A80036" points="197.87,32,188.87,28,192.87,32,188.87,36,197.87,32" style="stroke:#A80036;stroke-width:1.0;"/><text fill="#000000" font-family="sans-serif" font-size="13" lengthAdjust="spacing" textLength="29" x="150.75" y="25.5684">start</text><!--MD5=[27e3b90cb4cd6727cf5963eca24c33c7]
link editing to reviewing--><path d="M205.1,57.18 C197.42,65.75 190.04,76.02 186,87 C180.39,102.24 188.21,117.56 198.9,130.05 " fill="none" id="editing-to-reviewing" style="stroke:#A80036;stroke-width:1.0;"/><polygon fill="#A80036" points="202.3,133.83,199.2525,124.4645,198.9552,130.1135,193.3061,129.8162,202.3,133.83" style="stroke:#A80036;stroke-width:1.0;"/><text fill="#000000" font-family="sans-serif" font-size="13" lengthAdjust="spacing" textLength="44" x="187" y="100.5684">submit</text><!--MD5=[2b2cc35bd244b0dfb070438d165230b8]
reverse link editing to reviewing--><path d="M234.9,62.61 C235.83,75.34 236.5,90.4 236,104 C235.64,113.77 234.91,124.51 234.17,133.83 " fill="none" id="editing-backto-reviewing" style="stroke:#A80036;stroke-width:1.0;"/><polygon fill="#A80036" points="234.49,57.31,231.1961,66.5917,234.8757,62.2951,239.1723,65.9747,234.49,57.31" style="stroke:#A80036;stroke-width:1.0;"/><text fill="#000000" font-family="sans-serif" font-size="13" lengthAdjust="spacing" textLength="69" x="237" y="100.5684">disapprove</text><!--MD5=[251ecb2adabfc11800a34fd27363c50b]
link editing to editing--><path d="M266.08,20.85 C284.35,18.96 301,22.68 301,32 C301,40.45 287.33,44.29 271.17,43.53 " fill="none" id="editing-to-editing" style="stroke:#A80036;stroke-width:1.0;"/><polygon fill="#A80036" points="266.08,43.15,274.758,47.8076,271.0662,43.5215,275.3523,39.8297,266.08,43.15" style="stroke:#A80036;stroke-width:1.0;"/><text fill="#000000" font-family="sans-serif" font-size="13" lengthAdjust="spacing" textLength="28" x="307" y="37.0684">save</text><!--MD5=[a8cffae062843e4e24d21cc6371e0102]
link reviewing to tracking--><path d="M275.26,159 C300.22,159 331.52,159 356.51,159 " fill="none" id="reviewing-to-tracking" style="stroke:#A80036;stroke-width:1.0;"/><polygon fill="#A80036" points="361.75,159,352.75,155,356.75,159,352.75,163,361.75,159" style="stroke:#A80036;stroke-width:1.0;"/><text fill="#000000" font-family="sans-serif" font-size="13" lengthAdjust="spacing" textLength="50" x="293.5" y="152.5684">approve</text><!--MD5=[5ea14640d6d19a8d73baeaabeeadef4b]
link tracking to tracking--><path d="M438.31,147.66 C456.73,146.26 473,150.04 473,159 C473,167.12 459.64,170.99 443.42,170.6 " fill="none" id="tracking-to-tracking" style="stroke:#A80036;stroke-width:1.0;"/><polygon fill="#A80036" points="438.31,170.34,447.0927,174.797,443.3034,170.5968,447.5036,166.8075,438.31,170.34" style="stroke:#A80036;stroke-width:1.0;"/><text fill="#000000" font-family="sans-serif" font-size="13" lengthAdjust="spacing" textLength="32" x="479" y="164.0684">track</text><!--MD5=[b837b94c160a0ce16c4b6c4a95ce3009]
link tracking to closed--><path d="M400,184.1 C400,204.59 400,234.08 400,255.88 " fill="none" id="tracking-to-closed" style="stroke:#A80036;stroke-width:1.0;"/><polygon fill="#A80036" points="400,260.97,404,251.97,400,255.97,396,251.97,400,260.97" style="stroke:#A80036;stroke-width:1.0;"/><text fill="#000000" font-family="sans-serif" font-size="13" lengthAdjust="spacing" textLength="46" x="401" y="227.5684">finalize</text><!--MD5=[f2c71d9cae1afe899246a1b2795b9933]
link closed to *end--><path d="M432.18,286 C442.02,286 451.86,286 461.7,286 " fill="none" id="closed-to-*end" style="stroke:#A80036;stroke-width:1.0;"/><polygon fill="#A80036" points="466.85,286,457.85,282,461.85,286,457.85,290,466.85,286" style="stroke:#A80036;stroke-width:1.0;"/><!--MD5=[d93e0899006741a2ad6430a91874f095]
@startuml
[*] -right-> created

created -right-> editing : start
editing -down-> reviewing : submit
editing - -> editing : save

reviewing -right-> tracking : approve
reviewing -up-> editing : disapprove

tracking - -> tracking : track

tracking -down-> closed : finalize
closed -right-> [*]

@enduml

PlantUML version 1.2022.1(Wed Feb 02 02:19:58 CST 2022)
(GPL source distribution)
Java Runtime: OpenJDK Runtime Environment
JVM: OpenJDK 64-Bit Server VM
Default Encoding: UTF-8
Language: zh
Country: CN
--></g></svg>