<?xml version="1.0" encoding="UTF-8" standalone="no"?><svg xmlns="http://www.w3.org/2000/svg" xmlns:xlink="http://www.w3.org/1999/xlink" contentScriptType="application/ecmascript" contentStyleType="text/css" height="424px" preserveAspectRatio="none" style="width:250px;height:424px;background:#FFFFFF;" version="1.1" viewBox="0 0 250 424" width="250px" zoomAndPan="magnify"><defs><filter height="300%" id="fps3xy5prk8tw" width="300%" x="-1" y="-1"><feGaussianBlur result="blurOut" stdDeviation="2.0"/><feColorMatrix in="blurOut" result="blurOut2" type="matrix" values="0 0 0 0 0 0 0 0 0 0 0 0 0 0 0 0 0 0 .4 0"/><feOffset dx="4.0" dy="4.0" in="blurOut2" result="blurOut3"/><feBlend in="SourceGraphic" in2="blurOut3" mode="normal"/></filter></defs><g><line style="stroke:#A80036;stroke-width:1.0;stroke-dasharray:5.0,5.0;" x1="36" x2="36" y1="53.4883" y2="366.5938"/><line style="stroke:#A80036;stroke-width:1.0;stroke-dasharray:5.0,5.0;" x1="129" x2="129" y1="53.4883" y2="366.5938"/><line style="stroke:#A80036;stroke-width:1.0;stroke-dasharray:5.0,5.0;" x1="224.5" x2="224.5" y1="53.4883" y2="366.5938"/><text fill="#000000" font-family="sans-serif" font-size="14" lengthAdjust="spacing" textLength="57" x="5" y="50.5352">BidLogic</text><ellipse cx="36.5" cy="21" fill="#FEFECE" filter="url(#fps3xy5prk8tw)" rx="12" ry="12" style="stroke:#A80036;stroke-width:2.0;"/><polygon fill="#A80036" points="32.5,9,38.5,4,36.5,9,38.5,14,32.5,9" style="stroke:#A80036;stroke-width:1.0;"/><text fill="#000000" font-family="sans-serif" font-size="14" lengthAdjust="spacing" textLength="57" x="5" y="379.1289">BidLogic</text><ellipse cx="36.5" cy="398.082" fill="#FEFECE" filter="url(#fps3xy5prk8tw)" rx="12" ry="12" style="stroke:#A80036;stroke-width:2.0;"/><polygon fill="#A80036" points="32.5,386.082,38.5,381.082,36.5,386.082,38.5,391.082,32.5,386.082" style="stroke:#A80036;stroke-width:1.0;"/><rect fill="#FEFECE" filter="url(#fps3xy5prk8tw)" height="30.4883" style="stroke:#A80036;stroke-width:1.5;" width="83" x="86" y="18"/><text fill="#000000" font-family="sans-serif" font-size="14" lengthAdjust="spacing" textLength="69" x="93" y="38.5352">BidService</text><rect fill="#FEFECE" filter="url(#fps3xy5prk8tw)" height="30.4883" style="stroke:#A80036;stroke-width:1.5;" width="83" x="86" y="365.5938"/><text fill="#000000" font-family="sans-serif" font-size="14" lengthAdjust="spacing" textLength="69" x="93" y="386.1289">BidService</text><text fill="#000000" font-family="sans-serif" font-size="14" lengthAdjust="spacing" textLength="21" x="211" y="50.5352">Bid</text><ellipse cx="224.5" cy="21" fill="#FEFECE" filter="url(#fps3xy5prk8tw)" rx="12" ry="12" style="stroke:#A80036;stroke-width:2.0;"/><line style="stroke:#A80036;stroke-width:2.0;" x1="212.5" x2="236.5" y1="35" y2="35"/><text fill="#000000" font-family="sans-serif" font-size="14" lengthAdjust="spacing" textLength="21" x="211" y="379.1289">Bid</text><ellipse cx="224.5" cy="398.082" fill="#FEFECE" filter="url(#fps3xy5prk8tw)" rx="12" ry="12" style="stroke:#A80036;stroke-width:2.0;"/><line style="stroke:#A80036;stroke-width:2.0;" x1="212.5" x2="236.5" y1="412.082" y2="412.082"/><polygon fill="#A80036" points="117.5,80.7988,127.5,84.7988,117.5,88.7988,121.5,84.7988" style="stroke:#A80036;stroke-width:1.0;"/><line style="stroke:#A80036;stroke-width:1.0;" x1="36.5" x2="123.5" y1="84.7988" y2="84.7988"/><text fill="#000000" font-family="sans-serif" font-size="13" lengthAdjust="spacing" textLength="43" x="43.5" y="80.0566">editBid</text><polygon fill="#A80036" points="212.5,110.1094,222.5,114.1094,212.5,118.1094,216.5,114.1094" style="stroke:#A80036;stroke-width:1.0;"/><line style="stroke:#A80036;stroke-width:1.0;" x1="129.5" x2="218.5" y1="114.1094" y2="114.1094"/><text fill="#000000" font-family="sans-serif" font-size="13" lengthAdjust="spacing" textLength="69" x="136.5" y="109.3672">setContent</text><polygon fill="#A80036" points="117.5,139.4199,127.5,143.4199,117.5,147.4199,121.5,143.4199" style="stroke:#A80036;stroke-width:1.0;"/><line style="stroke:#A80036;stroke-width:1.0;" x1="36.5" x2="123.5" y1="143.4199" y2="143.4199"/><text fill="#000000" font-family="sans-serif" font-size="13" lengthAdjust="spacing" textLength="69" x="43.5" y="138.6777">approveBid</text><polygon fill="#A80036" points="212.5,168.7305,222.5,172.7305,212.5,176.7305,216.5,172.7305" style="stroke:#A80036;stroke-width:1.0;"/><line style="stroke:#A80036;stroke-width:1.0;" x1="129.5" x2="218.5" y1="172.7305" y2="172.7305"/><text fill="#000000" font-family="sans-serif" font-size="13" lengthAdjust="spacing" textLength="71" x="136.5" y="167.9883">setApprove</text><polygon fill="#A80036" points="117.5,198.041,127.5,202.041,117.5,206.041,121.5,202.041" style="stroke:#A80036;stroke-width:1.0;"/><line style="stroke:#A80036;stroke-width:1.0;" x1="36.5" x2="123.5" y1="202.041" y2="202.041"/><text fill="#000000" font-family="sans-serif" font-size="13" lengthAdjust="spacing" textLength="51" x="43.5" y="197.2988">trackBid</text><polygon fill="#A80036" points="212.5,227.3516,222.5,231.3516,212.5,235.3516,216.5,231.3516" style="stroke:#A80036;stroke-width:1.0;"/><line style="stroke:#A80036;stroke-width:1.0;" x1="129.5" x2="218.5" y1="231.3516" y2="231.3516"/><text fill="#000000" font-family="sans-serif" font-size="13" lengthAdjust="spacing" textLength="64" x="136.5" y="226.6094">addAddon</text><polygon fill="#A80036" points="117.5,256.6621,127.5,260.6621,117.5,264.6621,121.5,260.6621" style="stroke:#A80036;stroke-width:1.0;"/><line style="stroke:#A80036;stroke-width:1.0;" x1="36.5" x2="123.5" y1="260.6621" y2="260.6621"/><text fill="#000000" font-family="sans-serif" font-size="13" lengthAdjust="spacing" textLength="51" x="43.5" y="255.9199">trackBid</text><polygon fill="#A80036" points="212.5,285.9727,222.5,289.9727,212.5,293.9727,216.5,289.9727" style="stroke:#A80036;stroke-width:1.0;"/><line style="stroke:#A80036;stroke-width:1.0;" x1="129.5" x2="218.5" y1="289.9727" y2="289.9727"/><text fill="#000000" font-family="sans-serif" font-size="13" lengthAdjust="spacing" textLength="64" x="136.5" y="285.2305">addAddon</text><polygon fill="#A80036" points="117.5,315.2832,127.5,319.2832,117.5,323.2832,121.5,319.2832" style="stroke:#A80036;stroke-width:1.0;"/><line style="stroke:#A80036;stroke-width:1.0;" x1="36.5" x2="123.5" y1="319.2832" y2="319.2832"/><text fill="#000000" font-family="sans-serif" font-size="13" lengthAdjust="spacing" textLength="52" x="43.5" y="314.541">closeBid</text><polygon fill="#A80036" points="212.5,344.5938,222.5,348.5938,212.5,352.5938,216.5,348.5938" style="stroke:#A80036;stroke-width:1.0;"/><line style="stroke:#A80036;stroke-width:1.0;" x1="129.5" x2="218.5" y1="348.5938" y2="348.5938"/><text fill="#000000" font-family="sans-serif" font-size="13" lengthAdjust="spacing" textLength="54" x="136.5" y="343.8516">setClose</text><!--MD5=[88b13b9ae0d0544fbfc8d51fd497fce8]
@startuml
control     BidLogic       as logic
participant BidService     as service
entity      Bid         as bid

logic -> service : editBid
service -> bid : setContent
logic -> service : approveBid
service -> bid : setApprove
logic -> service : trackBid
service -> bid : addAddon
logic -> service : trackBid
service -> bid : addAddon
logic -> service : closeBid
service -> bid : setClose
@enduml

PlantUML version 1.2022.1(Wed Feb 02 02:19:58 CST 2022)
(GPL source distribution)
Java Runtime: OpenJDK Runtime Environment
JVM: OpenJDK 64-Bit Server VM
Default Encoding: UTF-8
Language: zh
Country: CN
--></g></svg>